<?xml version="1.0"?>
<svg xmlns="http://www.w3.org/2000/svg" version="1.2" width="512" height="512">
  <rect width="100%" height="100%" fill="#304ffe" />
  <path
    d="M403.75735153754226,382.64576055553624 L361.87141088266844,328.06473176625445 A140.678343347311,140.678343347311 0 0 0 382.9839749087858,293.7816247823543 A141.57593095779418,141.57593095779418 0 0 0 382.9839749087858,183.39612270501334 A138.45659183621405,138.45659183621405 0 0 0 352.4348916312027,139.20104164627264 A141.1686098474264,141.1686098474264 0 0 0 307.2222483803796,109.87392169979285 A145.3025488257408,145.3025488257408 0 0 0 251.62069506366726,99.2835728302307 L250.80605284293165,99.2835728302307 A145.3025488257408,145.3025488257408 0 0 0 195.20598069389337,109.87392169979285 A141.1686098474264,141.1686098474264 0 0 0 149.99333744307035,139.20104164627264 A138.45659183621405,138.45659183621405 0 0 0 119.44425416548722,183.39612270501334 A141.57444979012013,141.57444979012013 0 0 0 119.44425416548722,293.7816247823543 A140.09476328372955,140.09476328372955 0 0 0 149.79041747172352,337.97670584109494 A135.19357945024967,135.19357945024967 0 0 0 181.90065147777074,361.1940091320581 L210.82045031388276,317.8817040070601 A82.88910537600518,82.88910537600518 0 0 1 189.09616403837674,302.3294434293814 A79.55203460633756,79.55203460633756 0 0 1 171.17403518219464,274.42720678535176 A98.41470493555069,98.41470493555069 0 0 1 164.85981738765707,238.58294907298756 A96.79875100314617,96.79875100314617 0 0 1 171.17403518219464,202.9416113319702 A81.41534354031086,81.41534354031086 0 0 1 216.38667843301766,156.70992472139073 A96.30996567070484,96.30996567070484 0 0 1 286.03858830590724,156.70992472139073 A81.41534354031086,81.41534354031086 0 0 1 331.2512315567302,202.9416113319702 A96.80023217082024,96.80023217082024 0 0 1 337.5654493512677,238.58294907298756 A98.41618610322475,98.41618610322475 0 0 1 331.2512315567302,274.42720678535176 A79.55203460633756,79.55203460633756 0 0 1 313.3291027005481,302.3294434293814 A82.8876242083311,82.8876242083311 0 0 1 291.6048164250421,317.8817040070601 L364.38050892253386,412.72087017741876 L403.75735153754226,382.64576055553624 z"
    fill="#fff" />
  <circle cx="250.6712692966908" cy="349.65274121380327" r="30.480941772460938" fill="#ffa366" />
</svg>
